<mxfile host="app.diagrams.net" modified="2023-09-12T19:54:28.354Z" agent="Mozilla/5.0 (X11; Linux x86_64) AppleWebKit/537.36 (KHTML, like Gecko) Chrome/116.0.0.0 Safari/537.36  " etag="HRpwrmr1CdGG2ZoFobf_" version="21.7.4" type="device">
  <diagram name="Page-1" id="cfBk19PfN_RASMxErwAL">
    <mxGraphModel dx="989" dy="537" grid="0" gridSize="10" guides="1" tooltips="1" connect="1" arrows="1" fold="1" page="1" pageScale="1" pageWidth="850" pageHeight="1100" math="0" shadow="0">
      <root>
        <mxCell id="0" />
        <mxCell id="1" parent="0" />
        <mxCell id="Cbe2RraBzgDYHhXFiiV8-69" value="&lt;font style=&quot;font-size: 24px;&quot;&gt;player&lt;/font&gt;" style="shape=table;startSize=30;container=1;collapsible=1;childLayout=tableLayout;fixedRows=1;rowLines=0;fontStyle=1;align=center;resizeLast=1;html=1;whiteSpace=wrap;labelBorderColor=none;" parent="1" vertex="1">
          <mxGeometry x="349" y="349" width="239.75862068965512" height="170.5" as="geometry">
            <mxRectangle x="263" y="378.5" width="107" height="41" as="alternateBounds" />
          </mxGeometry>
        </mxCell>
        <mxCell id="Cbe2RraBzgDYHhXFiiV8-70" value="" style="shape=tableRow;horizontal=0;startSize=0;swimlaneHead=0;swimlaneBody=0;fillColor=none;collapsible=0;dropTarget=0;points=[[0,0.5],[1,0.5]];portConstraint=eastwest;top=0;left=0;right=0;bottom=0;html=1;" parent="Cbe2RraBzgDYHhXFiiV8-69" vertex="1">
          <mxGeometry y="30" width="239.75862068965512" height="30" as="geometry" />
        </mxCell>
        <mxCell id="Cbe2RraBzgDYHhXFiiV8-71" value="&lt;font style=&quot;font-size: 18px;&quot;&gt;PK&lt;/font&gt;" style="shape=partialRectangle;connectable=0;fillColor=none;top=0;left=0;bottom=1;right=0;fontStyle=1;overflow=hidden;html=1;whiteSpace=wrap;" parent="Cbe2RraBzgDYHhXFiiV8-70" vertex="1">
          <mxGeometry width="30.71428571428578" height="30" as="geometry">
            <mxRectangle width="30.71428571428578" height="30" as="alternateBounds" />
          </mxGeometry>
        </mxCell>
        <mxCell id="Cbe2RraBzgDYHhXFiiV8-72" value="&lt;font style=&quot;font-size: 18px;&quot;&gt;&lt;u&gt;id&lt;/u&gt;&lt;span style=&quot;font-weight: normal;&quot;&gt; (int)&lt;/span&gt;&lt;/font&gt;" style="shape=partialRectangle;connectable=0;fillColor=none;top=0;left=0;bottom=1;right=0;align=left;spacingLeft=6;fontStyle=1;overflow=hidden;html=1;whiteSpace=wrap;strokeColor=inherit;" parent="Cbe2RraBzgDYHhXFiiV8-70" vertex="1">
          <mxGeometry x="30.71428571428578" width="209.04433497536934" height="30" as="geometry">
            <mxRectangle width="209.04433497536934" height="30" as="alternateBounds" />
          </mxGeometry>
        </mxCell>
        <mxCell id="B2TTQy6Bw16YjT0ZgOKs-79" value="" style="shape=tableRow;horizontal=0;startSize=0;swimlaneHead=0;swimlaneBody=0;fillColor=none;collapsible=0;dropTarget=0;points=[[0,0.5],[1,0.5]];portConstraint=eastwest;top=0;left=0;right=0;bottom=0;html=1;" vertex="1" parent="Cbe2RraBzgDYHhXFiiV8-69">
          <mxGeometry y="60" width="239.75862068965512" height="30" as="geometry" />
        </mxCell>
        <mxCell id="B2TTQy6Bw16YjT0ZgOKs-80" value="&lt;font style=&quot;font-size: 18px;&quot;&gt;FK&lt;/font&gt;" style="shape=partialRectangle;connectable=0;fillColor=none;top=0;left=0;bottom=1;right=0;fontStyle=1;overflow=hidden;html=1;whiteSpace=wrap;" vertex="1" parent="B2TTQy6Bw16YjT0ZgOKs-79">
          <mxGeometry width="30.71428571428578" height="30" as="geometry">
            <mxRectangle width="30.71428571428578" height="30" as="alternateBounds" />
          </mxGeometry>
        </mxCell>
        <mxCell id="B2TTQy6Bw16YjT0ZgOKs-81" value="&lt;span style=&quot;font-size: 18px;&quot;&gt;main_language_id &lt;span style=&quot;font-weight: normal;&quot;&gt;(int)&lt;/span&gt;&lt;/span&gt;" style="shape=partialRectangle;connectable=0;fillColor=none;top=0;left=0;bottom=1;right=0;align=left;spacingLeft=6;fontStyle=1;overflow=hidden;html=1;whiteSpace=wrap;strokeColor=inherit;" vertex="1" parent="B2TTQy6Bw16YjT0ZgOKs-79">
          <mxGeometry x="30.71428571428578" width="209.04433497536934" height="30" as="geometry">
            <mxRectangle width="209.04433497536934" height="30" as="alternateBounds" />
          </mxGeometry>
        </mxCell>
        <mxCell id="Cbe2RraBzgDYHhXFiiV8-76" value="" style="shape=tableRow;horizontal=0;startSize=0;swimlaneHead=0;swimlaneBody=0;fillColor=none;collapsible=0;dropTarget=0;points=[[0,0.5],[1,0.5]];portConstraint=eastwest;top=0;left=0;right=0;bottom=0;html=1;" parent="Cbe2RraBzgDYHhXFiiV8-69" vertex="1">
          <mxGeometry y="90" width="239.75862068965512" height="20" as="geometry" />
        </mxCell>
        <mxCell id="Cbe2RraBzgDYHhXFiiV8-77" value="" style="shape=partialRectangle;connectable=0;fillColor=none;top=0;left=0;bottom=0;right=0;editable=1;overflow=hidden;html=1;whiteSpace=wrap;" parent="Cbe2RraBzgDYHhXFiiV8-76" vertex="1">
          <mxGeometry width="30.71428571428578" height="20" as="geometry">
            <mxRectangle width="30.71428571428578" height="20" as="alternateBounds" />
          </mxGeometry>
        </mxCell>
        <mxCell id="Cbe2RraBzgDYHhXFiiV8-78" value="&lt;font style=&quot;font-size: 14px;&quot;&gt;name (string)&lt;/font&gt;" style="shape=partialRectangle;connectable=0;fillColor=none;top=0;left=0;bottom=0;right=0;align=left;spacingLeft=6;overflow=hidden;html=1;whiteSpace=wrap;spacingTop=0;" parent="Cbe2RraBzgDYHhXFiiV8-76" vertex="1">
          <mxGeometry x="30.71428571428578" width="209.04433497536934" height="20" as="geometry">
            <mxRectangle width="209.04433497536934" height="20" as="alternateBounds" />
          </mxGeometry>
        </mxCell>
        <mxCell id="Cbe2RraBzgDYHhXFiiV8-79" value="" style="shape=tableRow;horizontal=0;startSize=0;swimlaneHead=0;swimlaneBody=0;fillColor=none;collapsible=0;dropTarget=0;points=[[0,0.5],[1,0.5]];portConstraint=eastwest;top=0;left=0;right=0;bottom=0;html=1;" parent="Cbe2RraBzgDYHhXFiiV8-69" vertex="1">
          <mxGeometry y="110" width="239.75862068965512" height="20" as="geometry" />
        </mxCell>
        <mxCell id="Cbe2RraBzgDYHhXFiiV8-80" value="" style="shape=partialRectangle;connectable=0;fillColor=none;top=0;left=0;bottom=0;right=0;editable=1;overflow=hidden;html=1;whiteSpace=wrap;" parent="Cbe2RraBzgDYHhXFiiV8-79" vertex="1">
          <mxGeometry width="30.71428571428578" height="20" as="geometry">
            <mxRectangle width="30.71428571428578" height="20" as="alternateBounds" />
          </mxGeometry>
        </mxCell>
        <mxCell id="Cbe2RraBzgDYHhXFiiV8-81" value="&lt;font style=&quot;font-size: 14px;&quot;&gt;is_man (boolean / null)&lt;/font&gt;" style="shape=partialRectangle;connectable=0;fillColor=none;top=0;left=0;bottom=0;right=0;align=left;spacingLeft=6;overflow=hidden;html=1;whiteSpace=wrap;spacing=2;spacingTop=0;" parent="Cbe2RraBzgDYHhXFiiV8-79" vertex="1">
          <mxGeometry x="30.71428571428578" width="209.04433497536934" height="20" as="geometry">
            <mxRectangle width="209.04433497536934" height="20" as="alternateBounds" />
          </mxGeometry>
        </mxCell>
        <mxCell id="Cbe2RraBzgDYHhXFiiV8-86" value="" style="shape=tableRow;horizontal=0;startSize=0;swimlaneHead=0;swimlaneBody=0;fillColor=none;collapsible=0;dropTarget=0;points=[[0,0.5],[1,0.5]];portConstraint=eastwest;top=0;left=0;right=0;bottom=0;html=1;" parent="Cbe2RraBzgDYHhXFiiV8-69" vertex="1">
          <mxGeometry y="130" width="239.75862068965512" height="20" as="geometry" />
        </mxCell>
        <mxCell id="Cbe2RraBzgDYHhXFiiV8-87" value="" style="shape=partialRectangle;connectable=0;fillColor=none;top=0;left=0;bottom=0;right=0;editable=1;overflow=hidden;html=1;whiteSpace=wrap;" parent="Cbe2RraBzgDYHhXFiiV8-86" vertex="1">
          <mxGeometry width="30.71428571428578" height="20" as="geometry">
            <mxRectangle width="30.71428571428578" height="20" as="alternateBounds" />
          </mxGeometry>
        </mxCell>
        <mxCell id="Cbe2RraBzgDYHhXFiiV8-88" value="&lt;font style=&quot;font-size: 14px;&quot;&gt;e-mail (string)&lt;br&gt;&lt;/font&gt;" style="shape=partialRectangle;connectable=0;fillColor=none;top=0;left=0;bottom=0;right=0;align=left;spacingLeft=6;overflow=hidden;html=1;whiteSpace=wrap;spacingTop=0;" parent="Cbe2RraBzgDYHhXFiiV8-86" vertex="1">
          <mxGeometry x="30.71428571428578" width="209.04433497536934" height="20" as="geometry">
            <mxRectangle width="209.04433497536934" height="20" as="alternateBounds" />
          </mxGeometry>
        </mxCell>
        <mxCell id="B2TTQy6Bw16YjT0ZgOKs-39" value="" style="shape=tableRow;horizontal=0;startSize=0;swimlaneHead=0;swimlaneBody=0;fillColor=none;collapsible=0;dropTarget=0;points=[[0,0.5],[1,0.5]];portConstraint=eastwest;top=0;left=0;right=0;bottom=0;html=1;" vertex="1" parent="Cbe2RraBzgDYHhXFiiV8-69">
          <mxGeometry y="150" width="239.75862068965512" height="20" as="geometry" />
        </mxCell>
        <mxCell id="B2TTQy6Bw16YjT0ZgOKs-40" value="" style="shape=partialRectangle;connectable=0;fillColor=none;top=0;left=0;bottom=0;right=0;editable=1;overflow=hidden;html=1;whiteSpace=wrap;" vertex="1" parent="B2TTQy6Bw16YjT0ZgOKs-39">
          <mxGeometry width="30.71428571428578" height="20" as="geometry">
            <mxRectangle width="30.71428571428578" height="20" as="alternateBounds" />
          </mxGeometry>
        </mxCell>
        <mxCell id="B2TTQy6Bw16YjT0ZgOKs-41" value="&lt;font style=&quot;font-size: 14px;&quot;&gt;registration (date)&lt;br&gt;&lt;/font&gt;" style="shape=partialRectangle;connectable=0;fillColor=none;top=0;left=0;bottom=0;right=0;align=left;spacingLeft=6;overflow=hidden;html=1;whiteSpace=wrap;spacingTop=0;" vertex="1" parent="B2TTQy6Bw16YjT0ZgOKs-39">
          <mxGeometry x="30.71428571428578" width="209.04433497536934" height="20" as="geometry">
            <mxRectangle width="209.04433497536934" height="20" as="alternateBounds" />
          </mxGeometry>
        </mxCell>
        <mxCell id="Cbe2RraBzgDYHhXFiiV8-89" value="&lt;font style=&quot;font-size: 24px;&quot;&gt;question&lt;/font&gt;" style="shape=table;startSize=30;container=1;collapsible=1;childLayout=tableLayout;fixedRows=1;rowLines=0;fontStyle=1;align=center;resizeLast=1;html=1;whiteSpace=wrap;labelBorderColor=none;" parent="1" vertex="1">
          <mxGeometry x="469" y="128" width="190.10344827586232" height="201" as="geometry">
            <mxRectangle x="573" y="292" width="107" height="41" as="alternateBounds" />
          </mxGeometry>
        </mxCell>
        <mxCell id="Cbe2RraBzgDYHhXFiiV8-90" value="" style="shape=tableRow;horizontal=0;startSize=0;swimlaneHead=0;swimlaneBody=0;fillColor=none;collapsible=0;dropTarget=0;points=[[0,0.5],[1,0.5]];portConstraint=eastwest;top=0;left=0;right=0;bottom=0;html=1;" parent="Cbe2RraBzgDYHhXFiiV8-89" vertex="1">
          <mxGeometry y="30" width="190.10344827586232" height="30" as="geometry" />
        </mxCell>
        <mxCell id="Cbe2RraBzgDYHhXFiiV8-91" value="&lt;font style=&quot;font-size: 18px;&quot;&gt;PK&lt;/font&gt;" style="shape=partialRectangle;connectable=0;fillColor=none;top=0;left=0;bottom=0;right=0;fontStyle=1;overflow=hidden;html=1;whiteSpace=wrap;" parent="Cbe2RraBzgDYHhXFiiV8-90" vertex="1">
          <mxGeometry width="30.71428571428578" height="30" as="geometry">
            <mxRectangle width="30.71428571428578" height="30" as="alternateBounds" />
          </mxGeometry>
        </mxCell>
        <mxCell id="Cbe2RraBzgDYHhXFiiV8-92" value="&lt;font style=&quot;font-size: 18px;&quot;&gt;&lt;u&gt;id&lt;/u&gt;&lt;span style=&quot;font-weight: normal;&quot;&gt; (int)&lt;/span&gt;&lt;/font&gt;" style="shape=partialRectangle;connectable=0;fillColor=none;top=0;left=0;bottom=0;right=0;align=left;spacingLeft=6;fontStyle=1;overflow=hidden;html=1;whiteSpace=wrap;strokeColor=inherit;" parent="Cbe2RraBzgDYHhXFiiV8-90" vertex="1">
          <mxGeometry x="30.71428571428578" width="159.38916256157654" height="30" as="geometry">
            <mxRectangle width="159.38916256157654" height="30" as="alternateBounds" />
          </mxGeometry>
        </mxCell>
        <mxCell id="B2TTQy6Bw16YjT0ZgOKs-75" value="" style="shape=tableRow;horizontal=0;startSize=0;swimlaneHead=0;swimlaneBody=0;fillColor=none;collapsible=0;dropTarget=0;points=[[0,0.5],[1,0.5]];portConstraint=eastwest;top=0;left=0;right=0;bottom=0;html=1;" vertex="1" parent="Cbe2RraBzgDYHhXFiiV8-89">
          <mxGeometry y="60" width="190.10344827586232" height="30" as="geometry" />
        </mxCell>
        <mxCell id="B2TTQy6Bw16YjT0ZgOKs-76" value="&lt;font style=&quot;font-size: 18px;&quot;&gt;FK&lt;/font&gt;" style="shape=partialRectangle;connectable=0;fillColor=none;top=0;left=0;bottom=0;right=0;fontStyle=1;overflow=hidden;html=1;whiteSpace=wrap;" vertex="1" parent="B2TTQy6Bw16YjT0ZgOKs-75">
          <mxGeometry width="30.71428571428578" height="30" as="geometry">
            <mxRectangle width="30.71428571428578" height="30" as="alternateBounds" />
          </mxGeometry>
        </mxCell>
        <mxCell id="B2TTQy6Bw16YjT0ZgOKs-77" value="&lt;font style=&quot;font-size: 18px;&quot;&gt;difficulty&lt;span style=&quot;font-weight: normal;&quot;&gt; (int)&lt;/span&gt;&lt;/font&gt;" style="shape=partialRectangle;connectable=0;fillColor=none;top=0;left=0;bottom=0;right=0;align=left;spacingLeft=6;fontStyle=1;overflow=hidden;html=1;whiteSpace=wrap;strokeColor=inherit;" vertex="1" parent="B2TTQy6Bw16YjT0ZgOKs-75">
          <mxGeometry x="30.71428571428578" width="159.38916256157654" height="30" as="geometry">
            <mxRectangle width="159.38916256157654" height="30" as="alternateBounds" />
          </mxGeometry>
        </mxCell>
        <mxCell id="B2TTQy6Bw16YjT0ZgOKs-72" value="" style="shape=tableRow;horizontal=0;startSize=0;swimlaneHead=0;swimlaneBody=0;fillColor=none;collapsible=0;dropTarget=0;points=[[0,0.5],[1,0.5]];portConstraint=eastwest;top=0;left=0;right=0;bottom=0;html=1;" vertex="1" parent="Cbe2RraBzgDYHhXFiiV8-89">
          <mxGeometry y="90" width="190.10344827586232" height="30" as="geometry" />
        </mxCell>
        <mxCell id="B2TTQy6Bw16YjT0ZgOKs-73" value="&lt;font style=&quot;font-size: 18px;&quot;&gt;FK&lt;/font&gt;" style="shape=partialRectangle;connectable=0;fillColor=none;top=0;left=0;bottom=1;right=0;fontStyle=1;overflow=hidden;html=1;whiteSpace=wrap;" vertex="1" parent="B2TTQy6Bw16YjT0ZgOKs-72">
          <mxGeometry width="30.71428571428578" height="30" as="geometry">
            <mxRectangle width="30.71428571428578" height="30" as="alternateBounds" />
          </mxGeometry>
        </mxCell>
        <mxCell id="B2TTQy6Bw16YjT0ZgOKs-74" value="&lt;font style=&quot;font-size: 18px;&quot;&gt;language_id&lt;span style=&quot;font-weight: normal;&quot;&gt;&amp;nbsp;(int)&lt;/span&gt;&lt;/font&gt;" style="shape=partialRectangle;connectable=0;fillColor=none;top=0;left=0;bottom=1;right=0;align=left;spacingLeft=6;fontStyle=1;overflow=hidden;html=1;whiteSpace=wrap;strokeColor=inherit;" vertex="1" parent="B2TTQy6Bw16YjT0ZgOKs-72">
          <mxGeometry x="30.71428571428578" width="159.38916256157654" height="30" as="geometry">
            <mxRectangle width="159.38916256157654" height="30" as="alternateBounds" />
          </mxGeometry>
        </mxCell>
        <mxCell id="Cbe2RraBzgDYHhXFiiV8-96" value="" style="shape=tableRow;horizontal=0;startSize=0;swimlaneHead=0;swimlaneBody=0;fillColor=none;collapsible=0;dropTarget=0;points=[[0,0.5],[1,0.5]];portConstraint=eastwest;top=0;left=0;right=0;bottom=0;html=1;" parent="Cbe2RraBzgDYHhXFiiV8-89" vertex="1">
          <mxGeometry y="120" width="190.10344827586232" height="20" as="geometry" />
        </mxCell>
        <mxCell id="Cbe2RraBzgDYHhXFiiV8-97" value="" style="shape=partialRectangle;connectable=0;fillColor=none;top=0;left=0;bottom=0;right=0;editable=1;overflow=hidden;html=1;whiteSpace=wrap;" parent="Cbe2RraBzgDYHhXFiiV8-96" vertex="1">
          <mxGeometry width="30.71428571428578" height="20" as="geometry">
            <mxRectangle width="30.71428571428578" height="20" as="alternateBounds" />
          </mxGeometry>
        </mxCell>
        <mxCell id="Cbe2RraBzgDYHhXFiiV8-98" value="&lt;font style=&quot;font-size: 14px;&quot;&gt;good_answer (string)&lt;/font&gt;" style="shape=partialRectangle;connectable=0;fillColor=none;top=0;left=0;bottom=0;right=0;align=left;spacingLeft=6;overflow=hidden;html=1;whiteSpace=wrap;spacing=2;spacingTop=0;" parent="Cbe2RraBzgDYHhXFiiV8-96" vertex="1">
          <mxGeometry x="30.71428571428578" width="159.38916256157654" height="20" as="geometry">
            <mxRectangle width="159.38916256157654" height="20" as="alternateBounds" />
          </mxGeometry>
        </mxCell>
        <mxCell id="Cbe2RraBzgDYHhXFiiV8-99" value="" style="shape=tableRow;horizontal=0;startSize=0;swimlaneHead=0;swimlaneBody=0;fillColor=none;collapsible=0;dropTarget=0;points=[[0,0.5],[1,0.5]];portConstraint=eastwest;top=0;left=0;right=0;bottom=0;html=1;" parent="Cbe2RraBzgDYHhXFiiV8-89" vertex="1">
          <mxGeometry y="140" width="190.10344827586232" height="20" as="geometry" />
        </mxCell>
        <mxCell id="Cbe2RraBzgDYHhXFiiV8-100" value="" style="shape=partialRectangle;connectable=0;fillColor=none;top=0;left=0;bottom=0;right=0;editable=1;overflow=hidden;html=1;whiteSpace=wrap;" parent="Cbe2RraBzgDYHhXFiiV8-99" vertex="1">
          <mxGeometry width="30.71428571428578" height="20" as="geometry">
            <mxRectangle width="30.71428571428578" height="20" as="alternateBounds" />
          </mxGeometry>
        </mxCell>
        <mxCell id="Cbe2RraBzgDYHhXFiiV8-101" value="&lt;font style=&quot;font-size: 14px;&quot;&gt;wrong_answer1 (string)&lt;/font&gt;" style="shape=partialRectangle;connectable=0;fillColor=none;top=0;left=0;bottom=0;right=0;align=left;spacingLeft=6;overflow=hidden;html=1;whiteSpace=wrap;spacingTop=0;" parent="Cbe2RraBzgDYHhXFiiV8-99" vertex="1">
          <mxGeometry x="30.71428571428578" width="159.38916256157654" height="20" as="geometry">
            <mxRectangle width="159.38916256157654" height="20" as="alternateBounds" />
          </mxGeometry>
        </mxCell>
        <mxCell id="Cbe2RraBzgDYHhXFiiV8-102" value="" style="shape=tableRow;horizontal=0;startSize=0;swimlaneHead=0;swimlaneBody=0;fillColor=none;collapsible=0;dropTarget=0;points=[[0,0.5],[1,0.5]];portConstraint=eastwest;top=0;left=0;right=0;bottom=0;html=1;" parent="Cbe2RraBzgDYHhXFiiV8-89" vertex="1">
          <mxGeometry y="160" width="190.10344827586232" height="20" as="geometry" />
        </mxCell>
        <mxCell id="Cbe2RraBzgDYHhXFiiV8-103" value="" style="shape=partialRectangle;connectable=0;fillColor=none;top=0;left=0;bottom=0;right=0;editable=1;overflow=hidden;html=1;whiteSpace=wrap;" parent="Cbe2RraBzgDYHhXFiiV8-102" vertex="1">
          <mxGeometry width="30.71428571428578" height="20" as="geometry">
            <mxRectangle width="30.71428571428578" height="20" as="alternateBounds" />
          </mxGeometry>
        </mxCell>
        <mxCell id="Cbe2RraBzgDYHhXFiiV8-104" value="&lt;font style=&quot;font-size: 14px;&quot;&gt;wrong_answer2 (string)&lt;/font&gt;" style="shape=partialRectangle;connectable=0;fillColor=none;top=0;left=0;bottom=0;right=0;align=left;spacingLeft=6;overflow=hidden;html=1;whiteSpace=wrap;spacingTop=0;" parent="Cbe2RraBzgDYHhXFiiV8-102" vertex="1">
          <mxGeometry x="30.71428571428578" width="159.38916256157654" height="20" as="geometry">
            <mxRectangle width="159.38916256157654" height="20" as="alternateBounds" />
          </mxGeometry>
        </mxCell>
        <mxCell id="Cbe2RraBzgDYHhXFiiV8-105" value="" style="shape=tableRow;horizontal=0;startSize=0;swimlaneHead=0;swimlaneBody=0;fillColor=none;collapsible=0;dropTarget=0;points=[[0,0.5],[1,0.5]];portConstraint=eastwest;top=0;left=0;right=0;bottom=0;html=1;" parent="Cbe2RraBzgDYHhXFiiV8-89" vertex="1">
          <mxGeometry y="180" width="190.10344827586232" height="20" as="geometry" />
        </mxCell>
        <mxCell id="Cbe2RraBzgDYHhXFiiV8-106" value="" style="shape=partialRectangle;connectable=0;fillColor=none;top=0;left=0;bottom=0;right=0;editable=1;overflow=hidden;html=1;whiteSpace=wrap;" parent="Cbe2RraBzgDYHhXFiiV8-105" vertex="1">
          <mxGeometry width="30.71428571428578" height="20" as="geometry">
            <mxRectangle width="30.71428571428578" height="20" as="alternateBounds" />
          </mxGeometry>
        </mxCell>
        <mxCell id="Cbe2RraBzgDYHhXFiiV8-107" value="&lt;font style=&quot;font-size: 14px;&quot;&gt;wrong_answer3 (string)&lt;/font&gt;" style="shape=partialRectangle;connectable=0;fillColor=none;top=0;left=0;bottom=0;right=0;align=left;spacingLeft=6;overflow=hidden;html=1;whiteSpace=wrap;spacingTop=0;" parent="Cbe2RraBzgDYHhXFiiV8-105" vertex="1">
          <mxGeometry x="30.71428571428578" width="159.38916256157654" height="20" as="geometry">
            <mxRectangle width="159.38916256157654" height="20" as="alternateBounds" />
          </mxGeometry>
        </mxCell>
        <mxCell id="Cbe2RraBzgDYHhXFiiV8-108" value="&lt;font style=&quot;font-size: 24px;&quot;&gt;game&lt;/font&gt;" style="shape=table;startSize=30;container=1;collapsible=1;childLayout=tableLayout;fixedRows=1;rowLines=0;fontStyle=1;align=center;resizeLast=1;html=1;whiteSpace=wrap;labelBorderColor=none;" parent="1" vertex="1">
          <mxGeometry x="159" y="319" width="171" height="111" as="geometry">
            <mxRectangle x="573" y="292" width="107" height="41" as="alternateBounds" />
          </mxGeometry>
        </mxCell>
        <mxCell id="Cbe2RraBzgDYHhXFiiV8-109" value="" style="shape=tableRow;horizontal=0;startSize=0;swimlaneHead=0;swimlaneBody=0;fillColor=none;collapsible=0;dropTarget=0;points=[[0,0.5],[1,0.5]];portConstraint=eastwest;top=0;left=0;right=0;bottom=0;html=1;" parent="Cbe2RraBzgDYHhXFiiV8-108" vertex="1">
          <mxGeometry y="30" width="171" height="30" as="geometry" />
        </mxCell>
        <mxCell id="Cbe2RraBzgDYHhXFiiV8-110" value="&lt;font style=&quot;font-size: 18px;&quot;&gt;PK&lt;/font&gt;" style="shape=partialRectangle;connectable=0;fillColor=none;top=0;left=0;bottom=0;right=0;fontStyle=1;overflow=hidden;html=1;whiteSpace=wrap;" parent="Cbe2RraBzgDYHhXFiiV8-109" vertex="1">
          <mxGeometry width="30.71428571428578" height="30" as="geometry">
            <mxRectangle width="30.71428571428578" height="30" as="alternateBounds" />
          </mxGeometry>
        </mxCell>
        <mxCell id="Cbe2RraBzgDYHhXFiiV8-111" value="&lt;font style=&quot;font-size: 18px;&quot;&gt;&lt;u&gt;id&lt;/u&gt;&lt;span style=&quot;font-weight: normal;&quot;&gt; (int)&lt;/span&gt;&lt;/font&gt;" style="shape=partialRectangle;connectable=0;fillColor=none;top=0;left=0;bottom=0;right=0;align=left;spacingLeft=6;fontStyle=1;overflow=hidden;html=1;whiteSpace=wrap;strokeColor=inherit;" parent="Cbe2RraBzgDYHhXFiiV8-109" vertex="1">
          <mxGeometry x="30.71428571428578" width="140.28571428571422" height="30" as="geometry">
            <mxRectangle width="140.28571428571422" height="30" as="alternateBounds" />
          </mxGeometry>
        </mxCell>
        <mxCell id="Cbe2RraBzgDYHhXFiiV8-121" value="" style="shape=tableRow;horizontal=0;startSize=0;swimlaneHead=0;swimlaneBody=0;fillColor=none;collapsible=0;dropTarget=0;points=[[0,0.5],[1,0.5]];portConstraint=eastwest;top=0;left=0;right=0;bottom=0;html=1;" parent="Cbe2RraBzgDYHhXFiiV8-108" vertex="1">
          <mxGeometry y="60" width="171" height="30" as="geometry" />
        </mxCell>
        <mxCell id="Cbe2RraBzgDYHhXFiiV8-122" value="&lt;font style=&quot;font-size: 18px;&quot;&gt;FK&lt;/font&gt;" style="shape=partialRectangle;connectable=0;fillColor=none;top=0;left=0;bottom=1;right=0;fontStyle=1;overflow=hidden;html=1;whiteSpace=wrap;" parent="Cbe2RraBzgDYHhXFiiV8-121" vertex="1">
          <mxGeometry width="30.71428571428578" height="30" as="geometry">
            <mxRectangle width="30.71428571428578" height="30" as="alternateBounds" />
          </mxGeometry>
        </mxCell>
        <mxCell id="Cbe2RraBzgDYHhXFiiV8-123" value="&lt;font style=&quot;font-size: 18px;&quot;&gt;player_id&amp;nbsp;&lt;span style=&quot;font-weight: normal;&quot;&gt;(int)&lt;/span&gt;&lt;/font&gt;" style="shape=partialRectangle;connectable=0;fillColor=none;top=0;left=0;bottom=1;right=0;align=left;spacingLeft=6;fontStyle=1;overflow=hidden;html=1;whiteSpace=wrap;strokeColor=inherit;" parent="Cbe2RraBzgDYHhXFiiV8-121" vertex="1">
          <mxGeometry x="30.71428571428578" width="140.28571428571422" height="30" as="geometry">
            <mxRectangle width="140.28571428571422" height="30" as="alternateBounds" />
          </mxGeometry>
        </mxCell>
        <mxCell id="Cbe2RraBzgDYHhXFiiV8-112" value="" style="shape=tableRow;horizontal=0;startSize=0;swimlaneHead=0;swimlaneBody=0;fillColor=none;collapsible=0;dropTarget=0;points=[[0,0.5],[1,0.5]];portConstraint=eastwest;top=0;left=0;right=0;bottom=0;html=1;" parent="Cbe2RraBzgDYHhXFiiV8-108" vertex="1">
          <mxGeometry y="90" width="171" height="20" as="geometry" />
        </mxCell>
        <mxCell id="Cbe2RraBzgDYHhXFiiV8-113" value="" style="shape=partialRectangle;connectable=0;fillColor=none;top=0;left=0;bottom=0;right=0;editable=1;overflow=hidden;html=1;whiteSpace=wrap;" parent="Cbe2RraBzgDYHhXFiiV8-112" vertex="1">
          <mxGeometry width="30.71428571428578" height="20" as="geometry">
            <mxRectangle width="30.71428571428578" height="20" as="alternateBounds" />
          </mxGeometry>
        </mxCell>
        <mxCell id="Cbe2RraBzgDYHhXFiiV8-114" value="&lt;font style=&quot;font-size: 14px;&quot;&gt;date (date)&lt;/font&gt;" style="shape=partialRectangle;connectable=0;fillColor=none;top=0;left=0;bottom=0;right=0;align=left;spacingLeft=6;overflow=hidden;html=1;whiteSpace=wrap;spacingTop=0;" parent="Cbe2RraBzgDYHhXFiiV8-112" vertex="1">
          <mxGeometry x="30.71428571428578" width="140.28571428571422" height="20" as="geometry">
            <mxRectangle width="140.28571428571422" height="20" as="alternateBounds" />
          </mxGeometry>
        </mxCell>
        <mxCell id="Cbe2RraBzgDYHhXFiiV8-140" value="" style="shape=partialRectangle;connectable=0;fillColor=none;top=0;left=0;bottom=0;right=0;editable=1;overflow=hidden;html=1;whiteSpace=wrap;" parent="1" vertex="1">
          <mxGeometry x="246" y="743" width="30.71428571428578" height="20" as="geometry">
            <mxRectangle width="30.71428571428578" height="20" as="alternateBounds" />
          </mxGeometry>
        </mxCell>
        <mxCell id="Cbe2RraBzgDYHhXFiiV8-141" value="" style="shape=partialRectangle;connectable=0;fillColor=none;top=0;left=0;bottom=0;right=0;align=left;spacingLeft=6;overflow=hidden;html=1;whiteSpace=wrap;spacing=2;spacingTop=0;" parent="1" vertex="1">
          <mxGeometry x="276.7142857142858" y="743" width="140.28571428571422" height="20" as="geometry">
            <mxRectangle width="140.28571428571422" height="20" as="alternateBounds" />
          </mxGeometry>
        </mxCell>
        <mxCell id="Cbe2RraBzgDYHhXFiiV8-142" value="&lt;font style=&quot;font-size: 10px;&quot;&gt;The prize won can be calculated by answering the highest level correct question given in the game. Whether you get a fixed reward depends on answering the highest level question correctly. If we stored this separately in the game board, it would be redundant data.&lt;/font&gt;" style="shape=note;size=20;whiteSpace=wrap;html=1;" parent="1" vertex="1">
          <mxGeometry x="164" y="445" width="171" height="151" as="geometry" />
        </mxCell>
        <mxCell id="Cbe2RraBzgDYHhXFiiV8-160" value="" style="endArrow=none;html=1;rounded=0;entryX=0.469;entryY=0.015;entryDx=0;entryDy=0;entryPerimeter=0;" parent="1" source="Cbe2RraBzgDYHhXFiiV8-108" target="Cbe2RraBzgDYHhXFiiV8-142" edge="1">
          <mxGeometry relative="1" as="geometry">
            <mxPoint x="296" y="465" as="sourcePoint" />
            <mxPoint x="456" y="465" as="targetPoint" />
          </mxGeometry>
        </mxCell>
        <mxCell id="Cbe2RraBzgDYHhXFiiV8-183" value="&lt;font style=&quot;font-size: 24px;&quot;&gt;game_questions&lt;/font&gt;" style="shape=table;startSize=30;container=1;collapsible=1;childLayout=tableLayout;fixedRows=1;rowLines=0;fontStyle=1;align=center;resizeLast=1;html=1;whiteSpace=wrap;labelBorderColor=none;" parent="1" vertex="1">
          <mxGeometry x="155" y="158" width="225" height="140" as="geometry">
            <mxRectangle x="573" y="292" width="107" height="41" as="alternateBounds" />
          </mxGeometry>
        </mxCell>
        <mxCell id="Cbe2RraBzgDYHhXFiiV8-184" value="" style="shape=tableRow;horizontal=0;startSize=0;swimlaneHead=0;swimlaneBody=0;fillColor=none;collapsible=0;dropTarget=0;points=[[0,0.5],[1,0.5]];portConstraint=eastwest;top=0;left=0;right=0;bottom=0;html=1;" parent="Cbe2RraBzgDYHhXFiiV8-183" vertex="1">
          <mxGeometry y="30" width="225" height="30" as="geometry" />
        </mxCell>
        <mxCell id="Cbe2RraBzgDYHhXFiiV8-185" value="&lt;font style=&quot;font-size: 18px;&quot;&gt;PK&lt;/font&gt;" style="shape=partialRectangle;connectable=0;fillColor=none;top=0;left=0;bottom=0;right=0;fontStyle=1;overflow=hidden;html=1;whiteSpace=wrap;" parent="Cbe2RraBzgDYHhXFiiV8-184" vertex="1">
          <mxGeometry width="30.71428571428578" height="30" as="geometry">
            <mxRectangle width="30.71428571428578" height="30" as="alternateBounds" />
          </mxGeometry>
        </mxCell>
        <mxCell id="Cbe2RraBzgDYHhXFiiV8-186" value="&lt;font style=&quot;font-size: 18px;&quot;&gt;&lt;u&gt;id&lt;/u&gt;&lt;span style=&quot;font-weight: normal;&quot;&gt; (int)&lt;/span&gt;&lt;/font&gt;" style="shape=partialRectangle;connectable=0;fillColor=none;top=0;left=0;bottom=0;right=0;align=left;spacingLeft=6;fontStyle=1;overflow=hidden;html=1;whiteSpace=wrap;strokeColor=inherit;" parent="Cbe2RraBzgDYHhXFiiV8-184" vertex="1">
          <mxGeometry x="30.71428571428578" width="194.28571428571422" height="30" as="geometry">
            <mxRectangle width="194.28571428571422" height="30" as="alternateBounds" />
          </mxGeometry>
        </mxCell>
        <mxCell id="Cbe2RraBzgDYHhXFiiV8-194" value="" style="shape=tableRow;horizontal=0;startSize=0;swimlaneHead=0;swimlaneBody=0;fillColor=none;collapsible=0;dropTarget=0;points=[[0,0.5],[1,0.5]];portConstraint=eastwest;top=0;left=0;right=0;bottom=0;html=1;" parent="Cbe2RraBzgDYHhXFiiV8-183" vertex="1">
          <mxGeometry y="60" width="225" height="30" as="geometry" />
        </mxCell>
        <mxCell id="Cbe2RraBzgDYHhXFiiV8-195" value="&lt;font style=&quot;font-size: 18px;&quot;&gt;FK&lt;/font&gt;" style="shape=partialRectangle;connectable=0;fillColor=none;top=0;left=0;bottom=0;right=0;fontStyle=1;overflow=hidden;html=1;whiteSpace=wrap;" parent="Cbe2RraBzgDYHhXFiiV8-194" vertex="1">
          <mxGeometry width="30.71428571428578" height="30" as="geometry">
            <mxRectangle width="30.71428571428578" height="30" as="alternateBounds" />
          </mxGeometry>
        </mxCell>
        <mxCell id="Cbe2RraBzgDYHhXFiiV8-196" value="&lt;font style=&quot;font-size: 18px;&quot;&gt;game_id&lt;span style=&quot;font-weight: normal;&quot;&gt; (int)&lt;/span&gt;&lt;/font&gt;" style="shape=partialRectangle;connectable=0;fillColor=none;top=0;left=0;bottom=0;right=0;align=left;spacingLeft=6;fontStyle=1;overflow=hidden;html=1;whiteSpace=wrap;strokeColor=inherit;" parent="Cbe2RraBzgDYHhXFiiV8-194" vertex="1">
          <mxGeometry x="30.71428571428578" width="194.28571428571422" height="30" as="geometry">
            <mxRectangle width="194.28571428571422" height="30" as="alternateBounds" />
          </mxGeometry>
        </mxCell>
        <mxCell id="Cbe2RraBzgDYHhXFiiV8-187" value="" style="shape=tableRow;horizontal=0;startSize=0;swimlaneHead=0;swimlaneBody=0;fillColor=none;collapsible=0;dropTarget=0;points=[[0,0.5],[1,0.5]];portConstraint=eastwest;top=0;left=0;right=0;bottom=0;html=1;" parent="Cbe2RraBzgDYHhXFiiV8-183" vertex="1">
          <mxGeometry y="90" width="225" height="30" as="geometry" />
        </mxCell>
        <mxCell id="Cbe2RraBzgDYHhXFiiV8-188" value="&lt;font style=&quot;font-size: 18px;&quot;&gt;FK&lt;/font&gt;" style="shape=partialRectangle;connectable=0;fillColor=none;top=0;left=0;bottom=1;right=0;fontStyle=1;overflow=hidden;html=1;whiteSpace=wrap;" parent="Cbe2RraBzgDYHhXFiiV8-187" vertex="1">
          <mxGeometry width="30.71428571428578" height="30" as="geometry">
            <mxRectangle width="30.71428571428578" height="30" as="alternateBounds" />
          </mxGeometry>
        </mxCell>
        <mxCell id="Cbe2RraBzgDYHhXFiiV8-189" value="&lt;span style=&quot;font-size: 18px;&quot;&gt;question_id &lt;span style=&quot;font-weight: normal;&quot;&gt;(int)&lt;/span&gt;&lt;/span&gt;" style="shape=partialRectangle;connectable=0;fillColor=none;top=0;left=0;bottom=1;right=0;align=left;spacingLeft=6;fontStyle=1;overflow=hidden;html=1;whiteSpace=wrap;strokeColor=inherit;" parent="Cbe2RraBzgDYHhXFiiV8-187" vertex="1">
          <mxGeometry x="30.71428571428578" width="194.28571428571422" height="30" as="geometry">
            <mxRectangle width="194.28571428571422" height="30" as="alternateBounds" />
          </mxGeometry>
        </mxCell>
        <mxCell id="Cbe2RraBzgDYHhXFiiV8-190" value="" style="shape=tableRow;horizontal=0;startSize=0;swimlaneHead=0;swimlaneBody=0;fillColor=none;collapsible=0;dropTarget=0;points=[[0,0.5],[1,0.5]];portConstraint=eastwest;top=0;left=0;right=0;bottom=0;html=1;" parent="Cbe2RraBzgDYHhXFiiV8-183" vertex="1">
          <mxGeometry y="120" width="225" height="20" as="geometry" />
        </mxCell>
        <mxCell id="Cbe2RraBzgDYHhXFiiV8-191" value="" style="shape=partialRectangle;connectable=0;fillColor=none;top=0;left=0;bottom=0;right=0;editable=1;overflow=hidden;html=1;whiteSpace=wrap;" parent="Cbe2RraBzgDYHhXFiiV8-190" vertex="1">
          <mxGeometry width="30.71428571428578" height="20" as="geometry">
            <mxRectangle width="30.71428571428578" height="20" as="alternateBounds" />
          </mxGeometry>
        </mxCell>
        <mxCell id="Cbe2RraBzgDYHhXFiiV8-192" value="&lt;font style=&quot;font-size: 14px;&quot;&gt;chosen_answer (string / null)&lt;/font&gt;" style="shape=partialRectangle;connectable=0;fillColor=none;top=0;left=0;bottom=0;right=0;align=left;spacingLeft=6;overflow=hidden;html=1;whiteSpace=wrap;spacingTop=0;" parent="Cbe2RraBzgDYHhXFiiV8-190" vertex="1">
          <mxGeometry x="30.71428571428578" width="194.28571428571422" height="20" as="geometry">
            <mxRectangle width="194.28571428571422" height="20" as="alternateBounds" />
          </mxGeometry>
        </mxCell>
        <mxCell id="Cbe2RraBzgDYHhXFiiV8-202" value="" style="endArrow=none;html=1;rounded=0;exitX=0;exitY=0.5;exitDx=0;exitDy=0;entryX=1;entryY=0.5;entryDx=0;entryDy=0;" parent="1" source="Cbe2RraBzgDYHhXFiiV8-70" target="Cbe2RraBzgDYHhXFiiV8-121" edge="1">
          <mxGeometry relative="1" as="geometry">
            <mxPoint x="385.66000000000014" y="508.01" as="sourcePoint" />
            <mxPoint x="308.3" y="504.01" as="targetPoint" />
            <Array as="points" />
          </mxGeometry>
        </mxCell>
        <mxCell id="Cbe2RraBzgDYHhXFiiV8-204" value="" style="endArrow=none;html=1;rounded=0;entryX=0;entryY=0.5;entryDx=0;entryDy=0;exitX=0;exitY=0.5;exitDx=0;exitDy=0;" parent="1" source="Cbe2RraBzgDYHhXFiiV8-109" target="Cbe2RraBzgDYHhXFiiV8-194" edge="1">
          <mxGeometry relative="1" as="geometry">
            <mxPoint x="146" y="362" as="sourcePoint" />
            <mxPoint x="131" y="231" as="targetPoint" />
            <Array as="points">
              <mxPoint x="132" y="364" />
              <mxPoint x="132" y="233" />
            </Array>
          </mxGeometry>
        </mxCell>
        <mxCell id="Cbe2RraBzgDYHhXFiiV8-206" value="" style="endArrow=none;html=1;rounded=0;entryX=1;entryY=0.5;entryDx=0;entryDy=0;exitX=0;exitY=0.5;exitDx=0;exitDy=0;" parent="1" source="Cbe2RraBzgDYHhXFiiV8-90" target="Cbe2RraBzgDYHhXFiiV8-187" edge="1">
          <mxGeometry relative="1" as="geometry">
            <mxPoint x="385" y="84" as="sourcePoint" />
            <mxPoint x="545" y="84" as="targetPoint" />
            <Array as="points">
              <mxPoint x="436" y="173" />
              <mxPoint x="436" y="263" />
            </Array>
          </mxGeometry>
        </mxCell>
        <mxCell id="Cbe2RraBzgDYHhXFiiV8-208" value="" style="endArrow=none;html=1;rounded=0;exitX=1;exitY=0.5;exitDx=0;exitDy=0;entryX=0;entryY=0.5;entryDx=0;entryDy=0;" parent="1" source="Cbe2RraBzgDYHhXFiiV8-190" target="Cbe2RraBzgDYHhXFiiV8-96" edge="1">
          <mxGeometry relative="1" as="geometry">
            <mxPoint x="614" y="368" as="sourcePoint" />
            <mxPoint x="774" y="368" as="targetPoint" />
            <Array as="points">
              <mxPoint x="451" y="288" />
              <mxPoint x="451" y="258" />
            </Array>
          </mxGeometry>
        </mxCell>
        <mxCell id="Cbe2RraBzgDYHhXFiiV8-209" value="&lt;font style=&quot;font-size: 24px;&quot;&gt;question_reward&lt;/font&gt;" style="shape=table;startSize=30;container=1;collapsible=1;childLayout=tableLayout;fixedRows=1;rowLines=0;fontStyle=1;align=center;resizeLast=1;html=1;whiteSpace=wrap;labelBorderColor=none;" parent="1" vertex="1">
          <mxGeometry x="606" y="434" width="219" height="101" as="geometry">
            <mxRectangle x="573" y="292" width="107" height="41" as="alternateBounds" />
          </mxGeometry>
        </mxCell>
        <mxCell id="Cbe2RraBzgDYHhXFiiV8-213" value="" style="shape=tableRow;horizontal=0;startSize=0;swimlaneHead=0;swimlaneBody=0;fillColor=none;collapsible=0;dropTarget=0;points=[[0,0.5],[1,0.5]];portConstraint=eastwest;top=0;left=0;right=0;bottom=0;html=1;" parent="Cbe2RraBzgDYHhXFiiV8-209" vertex="1">
          <mxGeometry y="30" width="219" height="30" as="geometry" />
        </mxCell>
        <mxCell id="Cbe2RraBzgDYHhXFiiV8-214" value="&lt;font style=&quot;font-size: 18px;&quot;&gt;PK&lt;/font&gt;" style="shape=partialRectangle;connectable=0;fillColor=none;top=0;left=0;bottom=1;right=0;fontStyle=1;overflow=hidden;html=1;whiteSpace=wrap;" parent="Cbe2RraBzgDYHhXFiiV8-213" vertex="1">
          <mxGeometry width="30.71428571428578" height="30" as="geometry">
            <mxRectangle width="30.71428571428578" height="30" as="alternateBounds" />
          </mxGeometry>
        </mxCell>
        <mxCell id="Cbe2RraBzgDYHhXFiiV8-215" value="&lt;font style=&quot;font-size: 18px;&quot;&gt;difficulty_level&amp;nbsp;&lt;span style=&quot;font-weight: normal;&quot;&gt;(int)&lt;/span&gt;&lt;/font&gt;" style="shape=partialRectangle;connectable=0;fillColor=none;top=0;left=0;bottom=1;right=0;align=left;spacingLeft=6;fontStyle=1;overflow=hidden;html=1;whiteSpace=wrap;strokeColor=inherit;" parent="Cbe2RraBzgDYHhXFiiV8-213" vertex="1">
          <mxGeometry x="30.71428571428578" width="188.28571428571422" height="30" as="geometry">
            <mxRectangle width="188.28571428571422" height="30" as="alternateBounds" />
          </mxGeometry>
        </mxCell>
        <mxCell id="Cbe2RraBzgDYHhXFiiV8-216" value="" style="shape=tableRow;horizontal=0;startSize=0;swimlaneHead=0;swimlaneBody=0;fillColor=none;collapsible=0;dropTarget=0;points=[[0,0.5],[1,0.5]];portConstraint=eastwest;top=0;left=0;right=0;bottom=0;html=1;" parent="Cbe2RraBzgDYHhXFiiV8-209" vertex="1">
          <mxGeometry y="60" width="219" height="20" as="geometry" />
        </mxCell>
        <mxCell id="Cbe2RraBzgDYHhXFiiV8-217" value="" style="shape=partialRectangle;connectable=0;fillColor=none;top=0;left=0;bottom=0;right=0;editable=1;overflow=hidden;html=1;whiteSpace=wrap;" parent="Cbe2RraBzgDYHhXFiiV8-216" vertex="1">
          <mxGeometry width="30.71428571428578" height="20" as="geometry">
            <mxRectangle width="30.71428571428578" height="20" as="alternateBounds" />
          </mxGeometry>
        </mxCell>
        <mxCell id="Cbe2RraBzgDYHhXFiiV8-218" value="&lt;font style=&quot;font-size: 14px;&quot;&gt;reward (int)&lt;/font&gt;" style="shape=partialRectangle;connectable=0;fillColor=none;top=0;left=0;bottom=0;right=0;align=left;spacingLeft=6;overflow=hidden;html=1;whiteSpace=wrap;spacingTop=0;" parent="Cbe2RraBzgDYHhXFiiV8-216" vertex="1">
          <mxGeometry x="30.71428571428578" width="188.28571428571422" height="20" as="geometry">
            <mxRectangle width="188.28571428571422" height="20" as="alternateBounds" />
          </mxGeometry>
        </mxCell>
        <mxCell id="Cbe2RraBzgDYHhXFiiV8-230" value="" style="shape=tableRow;horizontal=0;startSize=0;swimlaneHead=0;swimlaneBody=0;fillColor=none;collapsible=0;dropTarget=0;points=[[0,0.5],[1,0.5]];portConstraint=eastwest;top=0;left=0;right=0;bottom=0;html=1;" parent="Cbe2RraBzgDYHhXFiiV8-209" vertex="1">
          <mxGeometry y="80" width="219" height="20" as="geometry" />
        </mxCell>
        <mxCell id="Cbe2RraBzgDYHhXFiiV8-231" value="" style="shape=partialRectangle;connectable=0;fillColor=none;top=0;left=0;bottom=0;right=0;editable=1;overflow=hidden;html=1;whiteSpace=wrap;" parent="Cbe2RraBzgDYHhXFiiV8-230" vertex="1">
          <mxGeometry width="30.71428571428578" height="20" as="geometry">
            <mxRectangle width="30.71428571428578" height="20" as="alternateBounds" />
          </mxGeometry>
        </mxCell>
        <mxCell id="Cbe2RraBzgDYHhXFiiV8-232" value="&lt;font style=&quot;font-size: 14px;&quot;&gt;is_fix_reward (boolean)&lt;/font&gt;" style="shape=partialRectangle;connectable=0;fillColor=none;top=0;left=0;bottom=0;right=0;align=left;spacingLeft=6;overflow=hidden;html=1;whiteSpace=wrap;spacingTop=0;" parent="Cbe2RraBzgDYHhXFiiV8-230" vertex="1">
          <mxGeometry x="30.71428571428578" width="188.28571428571422" height="20" as="geometry">
            <mxRectangle width="188.28571428571422" height="20" as="alternateBounds" />
          </mxGeometry>
        </mxCell>
        <mxCell id="Cbe2RraBzgDYHhXFiiV8-229" value="" style="endArrow=none;html=1;rounded=0;exitX=1;exitY=0.5;exitDx=0;exitDy=0;entryX=1;entryY=0.5;entryDx=0;entryDy=0;" parent="1" source="B2TTQy6Bw16YjT0ZgOKs-75" target="Cbe2RraBzgDYHhXFiiV8-213" edge="1">
          <mxGeometry relative="1" as="geometry">
            <mxPoint x="520" y="244" as="sourcePoint" />
            <mxPoint x="680" y="244" as="targetPoint" />
            <Array as="points">
              <mxPoint x="840" y="206" />
              <mxPoint x="842" y="479" />
            </Array>
          </mxGeometry>
        </mxCell>
        <mxCell id="B2TTQy6Bw16YjT0ZgOKs-4" value="&lt;font style=&quot;font-size: 24px;&quot;&gt;language&lt;/font&gt;" style="shape=table;startSize=30;container=1;collapsible=1;childLayout=tableLayout;fixedRows=1;rowLines=0;fontStyle=1;align=center;resizeLast=1;html=1;whiteSpace=wrap;labelBorderColor=none;" vertex="1" parent="1">
          <mxGeometry x="631.5" y="341" width="168" height="80" as="geometry">
            <mxRectangle x="263" y="378.5" width="107" height="41" as="alternateBounds" />
          </mxGeometry>
        </mxCell>
        <mxCell id="B2TTQy6Bw16YjT0ZgOKs-5" value="" style="shape=tableRow;horizontal=0;startSize=0;swimlaneHead=0;swimlaneBody=0;fillColor=none;collapsible=0;dropTarget=0;points=[[0,0.5],[1,0.5]];portConstraint=eastwest;top=0;left=0;right=0;bottom=0;html=1;" vertex="1" parent="B2TTQy6Bw16YjT0ZgOKs-4">
          <mxGeometry y="30" width="168" height="30" as="geometry" />
        </mxCell>
        <mxCell id="B2TTQy6Bw16YjT0ZgOKs-6" value="&lt;font style=&quot;font-size: 18px;&quot;&gt;PK&lt;br&gt;&lt;/font&gt;" style="shape=partialRectangle;connectable=0;fillColor=none;top=0;left=0;bottom=1;right=0;fontStyle=1;overflow=hidden;html=1;whiteSpace=wrap;" vertex="1" parent="B2TTQy6Bw16YjT0ZgOKs-5">
          <mxGeometry width="30.71428571428578" height="30" as="geometry">
            <mxRectangle width="30.71428571428578" height="30" as="alternateBounds" />
          </mxGeometry>
        </mxCell>
        <mxCell id="B2TTQy6Bw16YjT0ZgOKs-7" value="&lt;font style=&quot;font-size: 18px;&quot;&gt;&lt;u&gt;id&lt;/u&gt;&lt;span style=&quot;font-weight: normal;&quot;&gt; (int)&lt;/span&gt;&lt;/font&gt;" style="shape=partialRectangle;connectable=0;fillColor=none;top=0;left=0;bottom=1;right=0;align=left;spacingLeft=6;fontStyle=1;overflow=hidden;html=1;whiteSpace=wrap;strokeColor=inherit;" vertex="1" parent="B2TTQy6Bw16YjT0ZgOKs-5">
          <mxGeometry x="30.71428571428578" width="137.28571428571422" height="30" as="geometry">
            <mxRectangle width="137.28571428571422" height="30" as="alternateBounds" />
          </mxGeometry>
        </mxCell>
        <mxCell id="B2TTQy6Bw16YjT0ZgOKs-8" value="" style="shape=tableRow;horizontal=0;startSize=0;swimlaneHead=0;swimlaneBody=0;fillColor=none;collapsible=0;dropTarget=0;points=[[0,0.5],[1,0.5]];portConstraint=eastwest;top=0;left=0;right=0;bottom=0;html=1;" vertex="1" parent="B2TTQy6Bw16YjT0ZgOKs-4">
          <mxGeometry y="60" width="168" height="20" as="geometry" />
        </mxCell>
        <mxCell id="B2TTQy6Bw16YjT0ZgOKs-9" value="" style="shape=partialRectangle;connectable=0;fillColor=none;top=0;left=0;bottom=0;right=0;editable=1;overflow=hidden;html=1;whiteSpace=wrap;" vertex="1" parent="B2TTQy6Bw16YjT0ZgOKs-8">
          <mxGeometry width="30.71428571428578" height="20" as="geometry">
            <mxRectangle width="30.71428571428578" height="20" as="alternateBounds" />
          </mxGeometry>
        </mxCell>
        <mxCell id="B2TTQy6Bw16YjT0ZgOKs-10" value="&lt;font style=&quot;font-size: 14px;&quot;&gt;name (string)&lt;/font&gt;" style="shape=partialRectangle;connectable=0;fillColor=none;top=0;left=0;bottom=0;right=0;align=left;spacingLeft=6;overflow=hidden;html=1;whiteSpace=wrap;spacingTop=0;" vertex="1" parent="B2TTQy6Bw16YjT0ZgOKs-8">
          <mxGeometry x="30.71428571428578" width="137.28571428571422" height="20" as="geometry">
            <mxRectangle width="137.28571428571422" height="20" as="alternateBounds" />
          </mxGeometry>
        </mxCell>
        <mxCell id="B2TTQy6Bw16YjT0ZgOKs-68" value="" style="endArrow=none;html=1;rounded=0;exitX=1;exitY=0.5;exitDx=0;exitDy=0;entryX=0;entryY=0.5;entryDx=0;entryDy=0;" edge="1" parent="1" source="B2TTQy6Bw16YjT0ZgOKs-79" target="B2TTQy6Bw16YjT0ZgOKs-5">
          <mxGeometry relative="1" as="geometry">
            <mxPoint x="442" y="596" as="sourcePoint" />
            <mxPoint x="602" y="596" as="targetPoint" />
            <Array as="points">
              <mxPoint x="607" y="424" />
              <mxPoint x="607" y="386" />
            </Array>
          </mxGeometry>
        </mxCell>
        <mxCell id="B2TTQy6Bw16YjT0ZgOKs-82" value="" style="endArrow=none;html=1;rounded=0;exitX=1;exitY=0.5;exitDx=0;exitDy=0;entryX=1;entryY=0.5;entryDx=0;entryDy=0;" edge="1" parent="1" source="B2TTQy6Bw16YjT0ZgOKs-5" target="B2TTQy6Bw16YjT0ZgOKs-72">
          <mxGeometry relative="1" as="geometry">
            <mxPoint x="359" y="404" as="sourcePoint" />
            <mxPoint x="740" y="273" as="targetPoint" />
            <Array as="points">
              <mxPoint x="820" y="386" />
              <mxPoint x="820" y="235" />
            </Array>
          </mxGeometry>
        </mxCell>
      </root>
    </mxGraphModel>
  </diagram>
</mxfile>
